name Walk10.mot
datacolumns 19
datarows 12
range 1.17300000 1.18400000
endheader

                time	   L_ground_force_vx	   L_ground_force_vy	   L_ground_force_vz	   L_ground_force_px	   L_ground_force_py	   L_ground_force_pz	   R_ground_force_vx	   R_ground_force_vy	   R_ground_force_vz	   R_ground_force_px	   R_ground_force_py	   R_ground_force_pz	   L_ground_torque_x	   L_ground_torque_y	   L_ground_torque_z	   R_ground_torque_x	   R_ground_torque_y	   R_ground_torque_z	
          1.17300000	         20.71638832	        739.20590073	        -23.53050526	         -0.23851924	          0.00000000	          0.19963239	          0.00000000	          0.00000000	          0.00000000	          0.00000000	          0.00000000	          0.00000000	          0.00000000	          1.68015080	          0.00000000	          0.00000000	          0.00000000	          0.00000000	
          1.17400000	         21.49749201	        740.42274461	        -23.60334142	         -0.23849497	          0.00000000	          0.19964857	          0.00000000	          0.00000000	          0.00000000	          0.00000000	          0.00000000	          0.00000000	          0.00000000	          1.67988336	          0.00000000	          0.00000000	          0.00000000	          0.00000000	
          1.17500000	         22.30303452	        741.71509899	        -23.66678575	         -0.23846944	          0.00000000	          0.19966923	          0.00000000	          0.00000000	          0.00000000	          0.00000000	          0.00000000	          0.00000000	          0.00000000	          1.67704519	          0.00000000	          0.00000000	          0.00000000	          0.00000000	
          1.17600000	         23.13003713	        743.05621947	        -23.74439498	         -0.23842852	          0.00000000	          0.19972651	          0.00000000	          0.00000000	          0.00000000	          0.00000000	          0.00000000	          0.00000000	          0.00000000	          1.66966976	          0.00000000	          0.00000000	          0.00000000	          0.00000000	
          1.17700000	         23.97116434	        744.39576216	        -23.85021888	         -0.23835895	          0.00000000	          0.19981940	          0.00000000	          0.00000000	          0.00000000	          0.00000000	          0.00000000	          0.00000000	          0.00000000	          1.65899204	          0.00000000	          0.00000000	          0.00000000	          0.00000000	
          1.17800000	         24.81957695	        745.71876797	        -23.98194703	         -0.23825098	          0.00000000	          0.19992202	          0.00000000	          0.00000000	          0.00000000	          0.00000000	          0.00000000	          0.00000000	          0.00000000	          1.64808277	          0.00000000	          0.00000000	          0.00000000	          0.00000000	
          1.17900000	         25.66717003	        747.06346200	        -24.12173521	         -0.23809951	          0.00000000	          0.20001350	          0.00000000	          0.00000000	          0.00000000	          0.00000000	          0.00000000	          0.00000000	          0.00000000	          1.64111160	          0.00000000	          0.00000000	          0.00000000	          0.00000000	
          1.18000000	         26.50254447	        748.47540701	        -24.25042827	         -0.23790570	          0.00000000	          0.20009229	          0.00000000	          0.00000000	          0.00000000	          0.00000000	          0.00000000	          0.00000000	          0.00000000	          1.64128418	          0.00000000	          0.00000000	          0.00000000	          0.00000000	
          1.18100000	         27.31576046	        749.97112748	        -24.35957997	         -0.23768698	          0.00000000	          0.20016838	          0.00000000	          0.00000000	          0.00000000	          0.00000000	          0.00000000	          0.00000000	          0.00000000	          1.65001440	          0.00000000	          0.00000000	          0.00000000	          0.00000000	
          1.18200000	         28.09831701	        751.54297659	        -24.45327241	         -0.23747364	          0.00000000	          0.20024659	          0.00000000	          0.00000000	          0.00000000	          0.00000000	          0.00000000	          0.00000000	          0.00000000	          1.66967023	          0.00000000	          0.00000000	          0.00000000	          0.00000000	
          1.18300000	         28.84555231	        753.17488734	        -24.54196101	         -0.23728636	          0.00000000	          0.20032121	          0.00000000	          0.00000000	          0.00000000	          0.00000000	          0.00000000	          0.00000000	          0.00000000	          1.70206300	          0.00000000	          0.00000000	          0.00000000	          0.00000000	
          1.18400000	         29.56592643	        754.84108156	        -24.63668997	         -0.23712740	          0.00000000	          0.20037697	          0.00000000	          0.00000000	          0.00000000	          0.00000000	          0.00000000	          0.00000000	          0.00000000	          1.74112441	          0.00000000	          0.00000000	          0.00000000	          0.00000000	
